<?xml version="1.0" encoding="UTF-8"?><svg id="_イヤー_1" xmlns="http://www.w3.org/2000/svg" xmlns:xlink="http://www.w3.org/1999/xlink" viewBox="0 0 161 120"><defs><style>.cls-1{fill:url(#_称未設定グラデーション_7);}.cls-2{fill:#fff;font-family:TimesNewRomanPS-BoldItalicMT, 'Times New Roman';font-size:172.69px;}</style><linearGradient id="_称未設定グラデーション_7" x1="22.42" y1="126.05" x2="146.62" y2="1.85" gradientTransform="matrix(1, 0, 0, 1, 0, 0)" gradientUnits="userSpaceOnUse"><stop offset="0" stop-color="#1b1464"/><stop offset=".06" stop-color="#241461"/><stop offset=".15" stop-color="#3d1559"/><stop offset=".27" stop-color="#67164c"/><stop offset=".41" stop-color="#a1193b"/><stop offset=".56" stop-color="#e91b25"/><stop offset=".57" stop-color="#ed1c24"/><stop offset=".87" stop-color="#662d91"/><stop offset=".99" stop-color="#005b97"/></linearGradient></defs><text class="cls-2" transform="translate(-8.93 117.28)"><tspan x="0" y="0">02</tspan></text><g><path class="cls-1" d="M52.21,.58c5.45,0,10.12,1.59,14,4.76,3.88,3.18,6.67,7.41,8.39,12.69,1.71,5.28,2.57,10.51,2.57,15.68,0,8.94-1.17,18.16-3.5,27.66-2.33,9.5-5.58,18.24-9.74,26.22-4.16,7.98-8.77,14.67-13.83,20.07-3.2,3.37-7.1,6.21-11.68,8.52-4.58,2.3-9.26,3.46-14.04,3.46-4.44,0-8.47-1.35-12.1-4.05-3.63-2.7-6.48-6.63-8.56-11.8-2.08-5.17-3.12-10.71-3.12-16.61,0-12.93,2.33-25.89,7-38.87,3.88-10.79,8.7-20.11,14.46-27.95,5.76-7.84,11.02-13.1,15.77-15.77C42.58,1.92,47.37,.58,52.21,.58Zm.59,5.73c-1.69,0-3.15,.32-4.38,.97-1.24,.65-2.57,1.95-4.01,3.92-1.43,1.97-3.22,6.16-5.35,12.56-3.99,11.69-8.4,25.97-13.24,42.83-3.71,12.98-5.93,21.3-6.66,24.96-1.07,5.23-1.6,9.81-1.6,13.74,0,2.75,.74,4.92,2.23,6.49,1.49,1.57,3.33,2.36,5.52,2.36,2.3,0,4.19-.62,5.65-1.85,2.98-2.53,5.45-6.8,7.42-12.82,4.61-14.11,10.43-33.53,17.45-58.27,3.09-10.9,4.64-19.48,4.64-25.72,0-2.87-.75-5.12-2.23-6.75-1.49-1.63-3.3-2.45-5.44-2.45Z"/><path class="cls-1" d="M138.8,117.28h-60.71v-3.12c15.79-14.61,29.12-28.05,39.97-40.3,9.11-10.17,14.83-17.95,17.16-23.31,2.33-5.37,3.5-10.78,3.5-16.23,0-5.11-1.62-9.28-4.85-12.48-3.23-3.2-7.27-4.81-12.1-4.81-7.81,0-14.5,4.3-20.07,12.9l-3.12-1.43c2.92-8.32,6.72-14.64,11.38-18.97,6.46-5.96,14.05-8.94,22.77-8.94,8.09,0,14.8,2.5,20.11,7.5,5.31,5,7.97,10.79,7.97,17.37,0,5.79-1.29,11.51-3.88,17.16-2.59,5.65-7.93,12.75-16.02,21.29-6.18,6.52-18.72,17.85-37.61,33.98h22.01c7.08,0,12.04-.8,14.88-2.4,2.84-1.6,5.49-4.82,7.97-9.65h3.96l-13.32,31.45Z"/></g></svg>