<?xml version="1.0" encoding="UTF-8"?><svg id="_イヤー_1" xmlns="http://www.w3.org/2000/svg" xmlns:xlink="http://www.w3.org/1999/xlink" viewBox="0 0 158.5 120.5"><defs><style>.cls-1{fill:url(#_称未設定グラデーション_7);}.cls-2{fill:#fff;font-family:TimesNewRomanPS-BoldItalicMT, 'Times New Roman';font-size:172.69px;}</style><linearGradient id="_称未設定グラデーション_7" x1="18.18" y1="122.81" x2="142.4" y2="-1.4" gradientTransform="matrix(1, 0, 0, 1, 0, 0)" gradientUnits="userSpaceOnUse"><stop offset="0" stop-color="#1b1464"/><stop offset=".06" stop-color="#241461"/><stop offset=".15" stop-color="#3d1559"/><stop offset=".27" stop-color="#67164c"/><stop offset=".41" stop-color="#a1193b"/><stop offset=".56" stop-color="#e91b25"/><stop offset=".57" stop-color="#ed1c24"/><stop offset=".87" stop-color="#662d91"/><stop offset=".99" stop-color="#005b97"/></linearGradient></defs><text class="cls-2" transform="translate(-9.43 117.78)"><tspan x="0" y="0">03</tspan></text><g><path class="cls-1" d="M51.71,1.08c5.45,0,10.12,1.59,14,4.76,3.88,3.18,6.67,7.41,8.39,12.69,1.71,5.28,2.57,10.51,2.57,15.68,0,8.94-1.17,18.16-3.5,27.66-2.33,9.5-5.58,18.24-9.74,26.22-4.16,7.98-8.77,14.67-13.83,20.07-3.2,3.37-7.1,6.21-11.68,8.52-4.58,2.3-9.26,3.46-14.04,3.46-4.44,0-8.47-1.35-12.1-4.05-3.63-2.7-6.48-6.63-8.56-11.8C1.14,99.12,.1,93.58,.1,87.68c0-12.93,2.33-25.89,7-38.87,3.88-10.79,8.7-20.11,14.46-27.95,5.76-7.84,11.02-13.1,15.77-15.77,4.75-2.67,9.54-4,14.38-4Zm.59,5.73c-1.69,0-3.15,.32-4.38,.97-1.24,.65-2.57,1.95-4.01,3.92-1.43,1.97-3.22,6.16-5.35,12.56-3.99,11.69-8.4,25.97-13.24,42.83-3.71,12.98-5.93,21.3-6.66,24.96-1.07,5.23-1.6,9.81-1.6,13.74,0,2.75,.74,4.92,2.23,6.49,1.49,1.57,3.33,2.36,5.52,2.36,2.3,0,4.19-.62,5.65-1.85,2.98-2.53,5.45-6.8,7.42-12.82,4.61-14.11,10.43-33.53,17.45-58.27,3.09-10.9,4.64-19.48,4.64-25.72,0-2.87-.75-5.12-2.23-6.75-1.49-1.63-3.3-2.45-5.44-2.45Z"/><path class="cls-1" d="M98.93,55.64l1.1-3.63c7.81-1.12,14.11-2.78,18.89-4.97,6.41-2.81,11.07-6.1,14-9.87,2.92-3.77,4.38-7.81,4.38-12.14,0-3.71-1.32-6.88-3.96-9.53-2.64-2.64-5.93-3.96-9.87-3.96-3.09,0-5.96,.82-8.6,2.45-2.64,1.63-5.51,4.47-8.6,8.52l-3.37-1.69c4.72-7.08,9.46-12.14,14.21-15.18,4.75-3.04,10.08-4.55,15.98-4.55,7.42,0,13.43,2.09,18.04,6.28,4.61,4.19,6.91,9.21,6.91,15.05,0,4.61-1.12,8.63-3.37,12.06-2.25,3.43-5.57,6.41-9.95,8.94-3.2,1.86-8.24,3.74-15.09,5.65,6.24,2.7,10.62,5.73,13.15,9.11,3.77,5,5.65,11.05,5.65,18.13,0,13.27-5.73,24.23-17.2,32.88-9.61,7.31-20.74,10.96-33.39,10.96-6.75,0-11.83-1.27-15.26-3.79-2.36-1.74-3.54-4.05-3.54-6.91,0-2.58,.9-4.72,2.7-6.41,1.8-1.69,4.02-2.53,6.66-2.53,1.35,0,2.64,.28,3.88,.84,2.13,.9,5.34,2.8,9.61,5.69,4.27,2.9,7.81,4.34,10.62,4.34,3.48,0,6.55-1.77,9.19-5.31,3.88-5.23,5.82-11.78,5.82-19.65,0-6.13-1.24-11.5-3.71-16.1-2.47-4.61-5.65-8.02-9.53-10.25-3.88-2.22-8.99-3.7-15.35-4.43Z"/></g></svg>