<?xml version="1.0" encoding="UTF-8"?><svg id="_イヤー_1" xmlns="http://www.w3.org/2000/svg" xmlns:xlink="http://www.w3.org/1999/xlink" viewBox="0 0 154 123"><defs><style>.cls-1{fill:url(#_称未設定グラデーション_7);}.cls-2{fill:#fff;font-family:TimesNewRomanPS-BoldItalicMT, 'Times New Roman';font-size:172.69px;}</style><linearGradient id="_称未設定グラデーション_7" x1="21.85" y1="129.24" x2="150.5" y2=".6" gradientTransform="matrix(1, 0, 0, 1, 0, 0)" gradientUnits="userSpaceOnUse"><stop offset="0" stop-color="#1b1464"/><stop offset=".06" stop-color="#241461"/><stop offset=".15" stop-color="#3d1559"/><stop offset=".27" stop-color="#67164c"/><stop offset=".41" stop-color="#a1193b"/><stop offset=".56" stop-color="#e91b25"/><stop offset=".57" stop-color="#ed1c24"/><stop offset=".87" stop-color="#662d91"/><stop offset=".99" stop-color="#005b97"/></linearGradient></defs><text class="cls-2" transform="translate(-9.55 120.41)"><tspan x="0" y="0">01</tspan></text><g><path class="cls-1" d="M51.58,3.71c5.45,0,10.12,1.59,14,4.76,3.88,3.18,6.67,7.41,8.39,12.69,1.71,5.28,2.57,10.51,2.57,15.68,0,8.94-1.17,18.16-3.5,27.66-2.33,9.5-5.58,18.24-9.74,26.22-4.16,7.98-8.77,14.67-13.83,20.07-3.2,3.37-7.1,6.21-11.68,8.52-4.58,2.3-9.26,3.46-14.04,3.46-4.44,0-8.47-1.35-12.1-4.05-3.63-2.7-6.48-6.63-8.56-11.8C1.01,101.74-.03,96.21-.03,90.3-.03,77.38,2.31,64.42,6.97,51.43c3.88-10.79,8.7-20.11,14.46-27.95,5.76-7.84,11.02-13.1,15.77-15.77,4.75-2.67,9.54-4.01,14.38-4.01Zm.59,5.73c-1.69,0-3.15,.32-4.38,.97-1.24,.65-2.57,1.95-4.01,3.92-1.43,1.97-3.22,6.16-5.35,12.56-3.99,11.69-8.4,25.97-13.24,42.83-3.71,12.98-5.93,21.31-6.66,24.96-1.07,5.23-1.6,9.81-1.6,13.74,0,2.75,.74,4.92,2.23,6.49,1.49,1.57,3.33,2.36,5.52,2.36,2.3,0,4.19-.62,5.65-1.85,2.98-2.53,5.45-6.8,7.42-12.82,4.61-14.11,10.43-33.53,17.45-58.27,3.09-10.9,4.64-19.48,4.64-25.72,0-2.87-.75-5.11-2.23-6.75-1.49-1.63-3.3-2.45-5.44-2.45Z"/><path class="cls-1" d="M153.6,3.71l-27.91,95.96c-1.46,5-2.19,8.18-2.19,9.53s.52,2.74,1.56,4.17c1.04,1.43,2.16,2.36,3.37,2.78,1.21,.42,4.85,.8,10.92,1.14l-.93,3.12h-57.59l.93-3.12c5.73-.11,9.72-.59,11.97-1.43,2.25-.84,4.09-2.22,5.52-4.13,1.43-1.91,3.05-5.93,4.85-12.06l16.53-57c2.53-8.66,3.85-13.24,3.96-13.74,.34-1.46,.51-2.84,.51-4.13,0-2.53-.77-4.54-2.32-6.03-1.55-1.49-3.75-2.23-6.62-2.23-1.41,0-4.19,.23-8.35,.67l-.67-3.12L150.06,3.71h3.54Z"/></g></svg>